<svg width="439" height="332" viewBox="0 0 439 332" fill="none" xmlns="http://www.w3.org/2000/svg">
<g filter="url(#filter0_f_108_2628)">
<circle cx="407" cy="95" r="21" fill="white" fill-opacity="0.05"/>
<circle cx="331" cy="14" r="11" fill="white" fill-opacity="0.04"/>
<circle cx="370" cy="189" r="11" fill="white" fill-opacity="0.04"/>
<circle cx="322" cy="190" r="11" fill="white" fill-opacity="0.04"/>
<circle cx="159" cy="41" r="11" fill="white" fill-opacity="0.03"/>
<circle cx="61" cy="17" r="11" fill="white" fill-opacity="0.07"/>
<circle cx="134" cy="136" r="36" fill="white" fill-opacity="0.03"/>
<circle cx="378" cy="181" r="11" fill="white" fill-opacity="0.03"/>
<circle cx="418" cy="167" r="11" fill="white" fill-opacity="0.04"/>
<circle cx="52" cy="161" r="11" fill="white" fill-opacity="0.04"/>
<circle cx="122" cy="186" r="20" fill="white" fill-opacity="0.06"/>
<circle cx="16" cy="309" r="20" fill="white" fill-opacity="0.03"/>
<circle cx="401" cy="271" r="31" fill="white" fill-opacity="0.03"/>
<circle cx="321" cy="115" r="49" fill="white" fill-opacity="0.02"/>
<circle cx="412" cy="168" r="40" fill="white" fill-opacity="0.02"/>
<circle cx="427" cy="131" r="33" fill="white" fill-opacity="0.03"/>
<circle cx="56" cy="239" r="33" fill="white" fill-opacity="0.02"/>
<circle cx="12" cy="226" r="33" fill="white" fill-opacity="0.03"/>
</g>
<defs>
<filter id="filter0_f_108_2628" x="-24" y="0" width="487" height="332" filterUnits="userSpaceOnUse" color-interpolation-filters="sRGB">
<feFlood flood-opacity="0" result="BackgroundImageFix"/>
<feBlend mode="normal" in="SourceGraphic" in2="BackgroundImageFix" result="shape"/>
<feGaussianBlur stdDeviation="1.5" result="effect1_foregroundBlur_108_2628"/>
</filter>
</defs>
</svg>
