<svg width="1100" height="1100" viewBox="0 0 1100 1100" fill="none" xmlns="http://www.w3.org/2000/svg">
<path fill-rule="evenodd" clip-rule="evenodd" d="M1099.61 384.698L384.709 1099.6L380.422 1095.32L1095.33 380.411L1099.61 384.698ZM1089.35 374.405L374.446 1089.31L370.16 1085.02L1085.06 370.118L1089.35 374.405ZM364.156 1079.05L1079.06 364.148L1074.77 359.861L359.87 1074.77L364.156 1079.05ZM1068.78 353.873L353.874 1068.78L349.587 1064.49L1064.49 349.586L1068.78 353.873ZM343.585 1058.48L1058.49 343.58L1054.2 339.293L339.298 1054.2L343.585 1058.48ZM1048.21 333.305L333.304 1048.21L329.017 1043.92L1043.92 329.018L1048.21 333.305ZM323.039 1037.92L1037.94 323.012L1033.66 318.725L318.752 1033.63L323.039 1037.92ZM1027.64 312.737L312.732 1027.64L308.445 1023.36L1023.35 308.45L1027.64 312.737ZM302.469 1017.35L1017.37 302.443L1013.09 298.157L298.182 1013.06L302.469 1017.35ZM1007.09 292.168L292.187 1007.07L287.9 1002.79L1002.81 287.882L1007.09 292.168ZM281.898 996.817L996.803 281.912L992.516 277.625L277.611 992.53L281.898 996.817ZM986.521 271.6L271.616 986.505L267.33 982.219L982.235 267.313L986.521 271.6ZM261.34 976.218L976.245 261.312L971.958 257.026L257.053 971.931L261.34 976.218ZM965.949 251.05L251.044 965.956L246.757 961.669L961.662 246.764L965.949 251.05ZM240.781 955.662L955.687 240.757L951.4 236.47L236.495 951.376L240.781 955.662ZM945.379 230.464L230.474 945.369L226.187 941.082L941.092 226.177L945.379 230.464ZM220.21 935.112L935.115 220.207L930.828 215.92L215.923 930.826L220.21 935.112ZM924.834 209.932L209.929 924.837L205.642 920.551L920.547 205.645L924.834 209.932ZM199.639 914.544L914.544 199.639L910.257 195.352L195.352 910.257L199.639 914.544ZM904.262 189.346L189.357 904.251L185.07 899.964L899.975 185.059L904.262 189.346ZM179.094 893.976L893.999 179.071L889.712 174.784L174.807 889.689L179.094 893.976ZM883.709 168.796L168.804 883.701L164.517 879.414L879.422 164.509L883.709 168.796ZM158.522 873.39L873.427 158.484L869.14 154.198L154.235 869.103L158.522 873.39ZM863.139 148.228L148.233 863.133L143.947 858.846L858.852 143.941L863.139 148.228ZM137.951 852.876L852.856 137.971L848.57 133.684L133.664 848.59L137.951 852.876ZM842.594 127.66L127.689 842.565L123.402 838.278L838.307 123.373L842.594 127.66ZM117.38 832.29L832.285 117.385L827.998 113.098L113.093 828.003L117.38 832.29ZM822.021 107.091L107.116 821.996L102.83 817.71L817.735 102.805L822.021 107.091ZM96.834 811.722L811.739 96.8164L807.452 92.5296L92.5473 807.435L96.834 811.722ZM801.451 86.5414L86.546 801.447L82.2592 797.16L797.164 82.2547L801.451 86.5414ZM76.2637 791.153L791.169 76.2482L786.882 71.9615L71.9771 786.867L76.2637 791.153ZM780.893 65.9787L65.9874 780.884L61.7007 776.597L776.606 61.6919L780.893 65.9787ZM55.6925 770.585L770.598 55.6801L766.311 51.3933L51.4058 766.299L55.6925 770.585ZM760.334 45.4052L45.4288 760.31L41.1421 756.024L756.047 41.1184L760.334 45.4052ZM35.1212 750.035L750.026 35.1302L745.74 30.8434L30.8345 745.749L35.1212 750.035ZM739.764 24.8369L24.8585 739.742L20.5718 735.455L735.477 20.5502L739.764 24.8369ZM14.5763 729.449L729.481 14.5436L725.195 10.2569L10.2896 725.162L14.5763 729.449ZM719.191 4.28689L4.28625 719.192L-0.000488281 714.905L714.905 0.000149651L719.191 4.28689Z" fill="white" style="mix-blend-mode:screen"/>
</svg>
